<svg fill="none" height="32" viewBox="0 0 32 32" width="32" xmlns="http://www.w3.org/2000/svg" xmlns:xlink="http://www.w3.org/1999/xlink"><linearGradient id="a" gradientUnits="userSpaceOnUse" x1="16" x2="16" y1="2" y2="30"><stop offset="0" stop-color="#5af575"/><stop offset="1" stop-color="#13bd2c"/></linearGradient><path d="m2 11.6c0-3.36031 0-5.04047.65396-6.32394.57524-1.12898 1.49312-2.04686 2.6221-2.6221 1.28347-.65396 2.96363-.65396 6.32394-.65396h8.8c3.3603 0 5.0405 0 6.3239.65396 1.129.57524 2.0469 1.49312 2.6221 2.6221.654 1.28347.654 2.96363.654 6.32394v8.8c0 3.3603 0 5.0405-.654 6.3239-.5752 1.129-1.4931 2.0469-2.6221 2.6221-1.2834.654-2.9636.654-6.3239.654h-8.8c-3.36031 0-5.04047 0-6.32394-.654-1.12898-.5752-2.04686-1.4931-2.6221-2.6221-.65396-1.2834-.65396-2.9636-.65396-6.3239z" fill="url(#a)"/><path d="m16 23c4.9706 0 9-3.3579 9-7.5s-4.0294-7.5-9-7.5-9 3.3579-9 7.5c0 2.6255 1.61889 4.9359 4.0702 6.2758-.0821.6669-.3287 1.5569-1.0702 2.2242 1.4021-.2524 2.5211-.7595 3.3571-1.3286.8357.2136 1.7232.3286 2.6429.3286z" fill="#fff"/></svg>